<svg width="1440" height="250" viewBox="0 0 1440 250" fill="none" xmlns="http://www.w3.org/2000/svg">
<g clip-path="url(#clip0_4_117)">
<rect width="1440" height="250" fill="white"/>
<path d="M200 100L100 -1.19209e-05L6.67572e-06 100L200 100Z" fill="#86D2F7"/>
<path d="M100 100L200 200L300 100H100Z" fill="#FE64CD"/>
<path d="M100 200L150 150L200 200L150 250L100 200Z" fill="#E7E702"/>
<path d="M300 100H200L150 50H250L300 100Z" fill="#3AFF7B"/>
<path d="M200 0L250 50H150L200 0Z" fill="#FF6494"/>
<path d="M150 150L100 200V100L150 150Z" fill="#A7BDFD"/>
<path d="M0 100H100V200L0 100Z" fill="#02A5E5"/>
<path d="M365.1 50.48C381.9 50.48 394.14 53.9 401.82 60.74C409.5 67.46 413.34 76.88 413.34 89C413.34 94.4 412.44 99.56 410.64 104.48C408.96 109.4 406.14 113.84 402.18 117.8C398.22 121.64 392.94 124.7 386.34 126.98C379.86 129.14 371.88 130.22 362.4 130.22H348.54V179H329.1V50.48H365.1ZM363.66 66.86H348.54V113.84H360.24C367.56 113.84 373.68 113.06 378.6 111.5C383.52 109.82 387.18 107.24 389.58 103.76C392.1 100.16 393.36 95.48 393.36 89.72C393.36 82.04 390.96 76.34 386.16 72.62C381.48 68.78 373.98 66.86 363.66 66.86ZM465.775 80.18C478.015 80.18 487.135 82.88 493.135 88.28C499.135 93.56 502.135 101.9 502.135 113.3V179H488.635L484.855 165.5H484.135C481.375 168.98 478.495 171.86 475.495 174.14C472.615 176.42 469.255 178.1 465.415 179.18C461.695 180.26 457.135 180.8 451.735 180.8C445.975 180.8 440.755 179.78 436.075 177.74C431.515 175.58 427.915 172.34 425.275 168.02C422.635 163.58 421.315 158.06 421.315 151.46C421.315 141.62 425.035 134.12 432.475 128.96C440.035 123.8 451.495 120.98 466.855 120.5L483.415 119.96V114.56C483.415 107.36 481.795 102.32 478.555 99.44C475.315 96.56 470.755 95.12 464.875 95.12C459.835 95.12 455.035 95.84 450.475 97.28C445.915 98.72 441.595 100.46 437.515 102.5L431.395 88.64C435.955 86.24 441.175 84.26 447.055 82.7C453.055 81.02 459.295 80.18 465.775 80.18ZM470.275 132.74C459.235 133.22 451.555 135.08 447.235 138.32C443.035 141.44 440.935 145.88 440.935 151.64C440.935 156.68 442.435 160.34 445.435 162.62C448.555 164.9 452.455 166.04 457.135 166.04C464.695 166.04 470.935 163.94 475.855 159.74C480.775 155.54 483.235 149.24 483.235 140.84V132.38L470.275 132.74ZM507.754 81.98H528.274L548.434 137.06C549.514 139.82 550.474 142.52 551.314 145.16C552.154 147.8 552.874 150.44 553.474 153.08C554.194 155.6 554.734 158.12 555.094 160.64H555.814C556.414 157.52 557.374 153.86 558.694 149.66C560.014 145.34 561.394 141.08 562.834 136.88L581.914 81.98H602.434L560.854 192.14C558.574 198.38 555.754 203.72 552.394 208.16C549.034 212.72 545.014 216.2 540.334 218.6C535.774 221 530.374 222.2 524.134 222.2C521.134 222.2 518.554 222.02 516.394 221.66C514.234 221.42 512.374 221.12 510.814 220.76V205.64C512.134 205.88 513.694 206.12 515.494 206.36C517.414 206.6 519.394 206.72 521.434 206.72C525.154 206.72 528.334 206 530.974 204.56C533.734 203.12 536.014 201.08 537.814 198.44C539.734 195.8 541.354 192.8 542.674 189.44L546.634 179L507.754 81.98ZM627.516 179H608.436V42.2H627.516V179ZM686.639 80.18C695.159 80.18 702.479 81.98 708.599 85.58C714.719 89.06 719.399 94.1 722.639 100.7C725.999 107.3 727.679 115.1 727.679 124.1V134.54H662.519C662.759 144.5 665.339 152.12 670.259 157.4C675.299 162.68 682.319 165.32 691.319 165.32C697.559 165.32 703.079 164.78 707.879 163.7C712.799 162.5 717.839 160.76 722.999 158.48V174.32C718.199 176.48 713.279 178.1 708.239 179.18C703.319 180.26 697.439 180.8 690.599 180.8C681.239 180.8 672.959 178.94 665.759 175.22C658.559 171.5 652.919 165.98 648.839 158.66C644.879 151.22 642.899 142.1 642.899 131.3C642.899 120.38 644.699 111.14 648.299 103.58C652.019 96.02 657.119 90.26 663.599 86.3C670.199 82.22 677.879 80.18 686.639 80.18ZM686.639 94.94C679.799 94.94 674.279 97.16 670.079 101.6C665.999 106.04 663.599 112.34 662.879 120.5H708.599C708.599 115.46 707.819 111.02 706.259 107.18C704.699 103.34 702.299 100.34 699.059 98.18C695.819 96.02 691.679 94.94 686.639 94.94ZM806.927 151.64C806.927 158 805.367 163.34 802.247 167.66C799.127 171.98 794.627 175.28 788.747 177.56C782.867 179.72 775.787 180.8 767.507 180.8C760.667 180.8 754.787 180.26 749.867 179.18C745.067 178.22 740.627 176.78 736.547 174.86V158.12C740.867 160.16 745.847 162.02 751.487 163.7C757.127 165.26 762.647 166.04 768.047 166.04C775.247 166.04 780.407 164.9 783.527 162.62C786.767 160.34 788.387 157.28 788.387 153.44C788.387 151.28 787.787 149.36 786.587 147.68C785.387 145.88 783.107 144.08 779.747 142.28C776.507 140.36 771.707 138.2 765.347 135.8C759.227 133.28 754.007 130.82 749.687 128.42C745.367 125.9 742.067 122.96 739.787 119.6C737.507 116.12 736.367 111.68 736.367 106.28C736.367 97.88 739.727 91.46 746.447 87.02C753.287 82.46 762.287 80.18 773.447 80.18C779.327 80.18 784.847 80.78 790.007 81.98C795.287 83.06 800.387 84.74 805.307 87.02L799.007 101.6C796.247 100.28 793.367 99.2 790.367 98.36C787.487 97.4 784.547 96.62 781.547 96.02C778.667 95.42 775.667 95.12 772.547 95.12C766.787 95.12 762.407 96.02 759.407 97.82C756.407 99.62 754.907 102.14 754.907 105.38C754.907 107.66 755.567 109.64 756.887 111.32C758.327 113 760.787 114.68 764.267 116.36C767.747 118.04 772.487 120.08 778.487 122.48C784.487 124.76 789.587 127.1 793.787 129.5C798.107 131.9 801.347 134.84 803.507 138.32C805.787 141.8 806.927 146.24 806.927 151.64ZM885.114 151.64C885.114 158 883.554 163.34 880.434 167.66C877.314 171.98 872.814 175.28 866.934 177.56C861.054 179.72 853.974 180.8 845.694 180.8C838.854 180.8 832.974 180.26 828.054 179.18C823.254 178.22 818.814 176.78 814.734 174.86V158.12C819.054 160.16 824.034 162.02 829.674 163.7C835.314 165.26 840.834 166.04 846.234 166.04C853.434 166.04 858.594 164.9 861.714 162.62C864.954 160.34 866.574 157.28 866.574 153.44C866.574 151.28 865.974 149.36 864.774 147.68C863.574 145.88 861.294 144.08 857.934 142.28C854.694 140.36 849.894 138.2 843.534 135.8C837.414 133.28 832.194 130.82 827.874 128.42C823.554 125.9 820.254 122.96 817.974 119.6C815.694 116.12 814.554 111.68 814.554 106.28C814.554 97.88 817.914 91.46 824.634 87.02C831.474 82.46 840.474 80.18 851.634 80.18C857.514 80.18 863.034 80.78 868.194 81.98C873.474 83.06 878.574 84.74 883.494 87.02L877.194 101.6C874.434 100.28 871.554 99.2 868.554 98.36C865.674 97.4 862.734 96.62 859.734 96.02C856.854 95.42 853.854 95.12 850.734 95.12C844.974 95.12 840.594 96.02 837.594 97.82C834.594 99.62 833.094 102.14 833.094 105.38C833.094 107.66 833.754 109.64 835.074 111.32C836.514 113 838.974 114.68 842.454 116.36C845.934 118.04 850.674 120.08 856.674 122.48C862.674 124.76 867.774 127.1 871.974 129.5C876.294 131.9 879.534 134.84 881.694 138.32C883.974 141.8 885.114 146.24 885.114 151.64ZM1039.04 179H1019.6V120.32H958.22V179H938.78V50.48H958.22V103.76H1019.6V50.48H1039.04V179ZM1100.43 80.18C1108.95 80.18 1116.27 81.98 1122.39 85.58C1128.51 89.06 1133.19 94.1 1136.43 100.7C1139.79 107.3 1141.47 115.1 1141.47 124.1V134.54H1076.31C1076.55 144.5 1079.13 152.12 1084.05 157.4C1089.09 162.68 1096.11 165.32 1105.11 165.32C1111.35 165.32 1116.87 164.78 1121.67 163.7C1126.59 162.5 1131.63 160.76 1136.79 158.48V174.32C1131.99 176.48 1127.07 178.1 1122.03 179.18C1117.11 180.26 1111.23 180.8 1104.39 180.8C1095.03 180.8 1086.75 178.94 1079.55 175.22C1072.35 171.5 1066.71 165.98 1062.63 158.66C1058.67 151.22 1056.69 142.1 1056.69 131.3C1056.69 120.38 1058.49 111.14 1062.09 103.58C1065.81 96.02 1070.91 90.26 1077.39 86.3C1083.99 82.22 1091.67 80.18 1100.43 80.18ZM1100.43 94.94C1093.59 94.94 1088.07 97.16 1083.87 101.6C1079.79 106.04 1077.39 112.34 1076.67 120.5H1122.39C1122.39 115.46 1121.61 111.02 1120.05 107.18C1118.49 103.34 1116.09 100.34 1112.85 98.18C1109.61 96.02 1105.47 94.94 1100.43 94.94ZM1193.9 80.18C1206.14 80.18 1215.26 82.88 1221.26 88.28C1227.26 93.56 1230.26 101.9 1230.26 113.3V179H1216.76L1212.98 165.5H1212.26C1209.5 168.98 1206.62 171.86 1203.62 174.14C1200.74 176.42 1197.38 178.1 1193.54 179.18C1189.82 180.26 1185.26 180.8 1179.86 180.8C1174.1 180.8 1168.88 179.78 1164.2 177.74C1159.64 175.58 1156.04 172.34 1153.4 168.02C1150.76 163.58 1149.44 158.06 1149.44 151.46C1149.44 141.62 1153.16 134.12 1160.6 128.96C1168.16 123.8 1179.62 120.98 1194.98 120.5L1211.54 119.96V114.56C1211.54 107.36 1209.92 102.32 1206.68 99.44C1203.44 96.56 1198.88 95.12 1193 95.12C1187.96 95.12 1183.16 95.84 1178.6 97.28C1174.04 98.72 1169.72 100.46 1165.64 102.5L1159.52 88.64C1164.08 86.24 1169.3 84.26 1175.18 82.7C1181.18 81.02 1187.42 80.18 1193.9 80.18ZM1198.4 132.74C1187.36 133.22 1179.68 135.08 1175.36 138.32C1171.16 141.44 1169.06 145.88 1169.06 151.64C1169.06 156.68 1170.56 160.34 1173.56 162.62C1176.68 164.9 1180.58 166.04 1185.26 166.04C1192.82 166.04 1199.06 163.94 1203.98 159.74C1208.9 155.54 1211.36 149.24 1211.36 140.84V132.38L1198.4 132.74ZM1269.72 179H1250.64V42.2H1269.72V179ZM1325.6 165.32C1328.12 165.32 1330.7 165.08 1333.34 164.6C1335.98 164.12 1338.26 163.58 1340.18 162.98V177.38C1338.14 178.34 1335.38 179.12 1331.9 179.72C1328.42 180.44 1324.94 180.8 1321.46 180.8C1316.18 180.8 1311.32 179.9 1306.88 178.1C1302.56 176.3 1299.08 173.18 1296.44 168.74C1293.8 164.3 1292.48 158.12 1292.48 150.2V96.56H1278.98V87.92L1293.2 80.72L1299.86 60.2H1311.56V81.98H1339.28V96.56H1311.56V149.84C1311.56 155.12 1312.82 159.02 1315.34 161.54C1317.98 164.06 1321.4 165.32 1325.6 165.32ZM1369.66 78.74C1369.66 81.74 1369.54 84.74 1369.3 87.74C1369.06 90.74 1368.82 93.2 1368.58 95.12H1369.84C1371.88 91.76 1374.4 89 1377.4 86.84C1380.52 84.68 1383.94 83.06 1387.66 81.98C1391.5 80.9 1395.4 80.36 1399.36 80.36C1407.04 80.36 1413.46 81.62 1418.62 84.14C1423.9 86.54 1427.86 90.38 1430.5 95.66C1433.26 100.82 1434.64 107.54 1434.64 115.82V179H1415.74V118.52C1415.74 110.96 1414.12 105.32 1410.88 101.6C1407.76 97.76 1402.72 95.84 1395.76 95.84C1389.16 95.84 1383.94 97.16 1380.1 99.8C1376.38 102.44 1373.68 106.34 1372 111.5C1370.44 116.54 1369.66 122.78 1369.66 130.22V179H1350.58V42.2H1369.66V78.74Z" fill="black" fill-opacity="0.85"/>
</g>
<defs>
<clipPath id="clip0_4_117">
<rect width="1440" height="250" fill="white"/>
</clipPath>
</defs>
</svg>
