<svg width="300" height="250" viewBox="0 0 300 250" fill="none" xmlns="http://www.w3.org/2000/svg">
<g clip-path="url(#clip0_4_99)">
<rect width="300" height="250" fill="white"/>
<path d="M200 100L100 -1.19209e-05L-2.38419e-05 100L200 100Z" fill="#86D2F7"/>
<path d="M100 100L200 200L300 100H100Z" fill="#FE64CD"/>
<path d="M100 200L150 150L200 200L150 250L100 200Z" fill="#E7E702"/>
<path d="M300 100H200L150 50H250L300 100Z" fill="#3AFF7B"/>
<path d="M200 0L250 50H150L200 0Z" fill="#FF6494"/>
<path d="M150 150L100 200V100L150 150Z" fill="#A7BDFD"/>
<path d="M0 100H100V200L0 100Z" fill="#02A5E5"/>
</g>
<defs>
<clipPath id="clip0_4_99">
<rect width="300" height="250" fill="white"/>
</clipPath>
</defs>
</svg>
